<?xml version="1.0" encoding="UTF-8"?><svg id="Calque_1" xmlns="http://www.w3.org/2000/svg" width="1109.1" height="179" viewBox="0 0 1109.1 179"><defs><style>.cls-1{fill:#1c567d;}.cls-2{fill:#599dc8;}</style></defs><path class="cls-2" d="M155.55,27.89c.52-.55-.16-13.59.57-15.67,5-1.27,10.06-3.35,15.23-3.33l.51,161.21c-20.38-4.81-40.95-15.99-61.31-21.83-1.23-.49-2.65-1.42-2.9-2.88-1.08-26.24,1.39-53.71,0-79.8-.08-1.55-.41-6.22-.75-7.35-.39-1.28-4.53-4.95-4.87-6.75.1-5.78.35-11.77.59-17.49.1-2.55-.09-8.83.49-10.65.27-.84,1.26-.99,1.95-1.18,4.31-1.23,9.41-1.46,13.8-2.73,1.66,1.26-.93,15.57.25,15.51l11.39-3.34c.4-2.18.27-14.22,1.08-14.86,4.75-1.06,9.44-2.96,14.29-2.97v14.66c1.77.24,3.45.16,5.28-.01M132.1,84.07c-.69,6.2,0,15.16,0,21.71,0,1.37,3,.27,3.8.25,3.82-.11,7.67.13,11.49.03-.09-2.62.1-5.28.02-7.9-.17-5.44-.17-13.88-1.08-18.94-1.51-8.47-10.22-6.56-12.97.24-.38.94-1.17,3.69-1.27,4.61Z"/><path class="cls-1" d="M171.86,170.11l-.51-161.21,14.03,6.5.31,16.49c.28.88,6.22,3.21,7.58,3.06v-14.93c0-.49-.64-1.4,0-2.44,3.14.36,5.33,2.9,7.96,4.28,1.68.88,12.69,5.54,12.87,6.35-.05.7-.45,1.36-.39,2.07.59,7.36,1.45,22.36.43,29.34-.5,3.41-4.18,5.82-4.57,9.25-1.26,11.24.47,26.45.55,37.98.12,16.82-.1,33.65-.07,50.48-.28,2.11-.9,1.97-2.51,2.72"/><path class="cls-1" d="M132.1,84.07c.1-.93.89-3.67,1.27-4.61,2.75-6.8,11.45-8.7,12.97-.24.91,5.06.91,13.5,1.08,18.94.08,2.62-.11,5.28-.02,7.9-3.82.1-7.66.3-11.49.41-.8.02-3.81.68-3.81-.69,0-6.55-.69-15.51,0-21.71Z"/><path class="cls-1" d="M250.44,87.68c0-26.04,19.25-45.54,45.42-45.54,20.38,0,36.61,12.33,42.15,30.57h-15.22c-4.66-10.32-14.59-16.98-27.05-16.98-17.99,0-30.95,13.59-30.95,31.96s12.96,31.96,30.95,31.96c12.46,0,22.39-6.67,27.05-16.98h15.22c-5.54,18.24-21.76,30.57-42.15,30.57-26.17,0-45.42-19.5-45.42-45.54Z"/><path class="cls-1" d="M349.19,97.11c0-21.14,13.71-36.11,31.83-36.11,10.82,0,19.25,5.41,24.28,13.34v-11.83h14.22v69.19h-14.22v-11.57c-5.16,7.93-13.34,13.08-24.16,13.08-18.49,0-31.96-14.97-31.96-36.11ZM405.43,97.11c0-13.21-9.18-22.52-21.26-22.52s-20.63,9.31-20.63,22.52,8.68,22.52,20.63,22.52,21.26-9.18,21.26-22.52Z"/><path class="cls-1" d="M432.73,109.44h14.47c2.14,7.67,7.8,11.2,19.75,11.2,9.18,0,14.84-2.77,14.84-7.93,0-5.79-6.54-6.67-18.12-9.44-19.38-4.78-27.55-8.68-27.55-20.26,0-13.96,11.83-22.02,29.19-22.02s27.68,8.43,30.19,21.01h-14.34c-2.01-5.66-7.3-8.43-16.1-8.43s-14.59,3.15-14.59,7.93c0,4.4,4.28,5.54,16.36,8.43,18.75,4.4,29.56,7.67,29.56,21.14,0,14.85-13.33,22.02-29.69,22.02-18.24,0-31.33-8.68-33.97-23.65Z"/><path class="cls-1" d="M517.14,105.17v-29.31h-12.83v-13.34h12.83v-15.73l14.22-3.15v18.87h28.43v13.34h-28.43v28.56c0,10.06,4.66,15.6,13.59,15.6,4.4,0,9.31-1.51,14.72-3.4l2.52,11.57c-3.77,2.26-11.83,5.03-19.75,5.03-14.22,0-25.29-8.93-25.29-28.06Z"/><path class="cls-1" d="M575.26,34.84h14.34v96.87h-14.34V34.84Z"/><path class="cls-1" d="M603.57,97.24c0-20.88,14.84-36.23,35.73-36.23,22.27,0,36.36,17.24,34.97,40.01h-56.11c1.01,12.71,9.94,19.75,21.51,19.75,8.3,0,15.22-3.52,18.49-10.32h14.72c-5.41,15.47-18.62,22.65-33.34,22.65-21.01,0-35.98-14.97-35.98-35.86ZM659.05,89.44c-2.14-9.56-9.18-16.1-19.75-16.1s-18.12,6.67-20.38,16.1h40.13Z"/><path class="cls-2" d="M757.05,105.04c0,21.51-19.88,28.31-33.97,28.31-26.92,0-37.11-15.73-38.88-30.7h21.64c2.01,7.3,5.91,10.69,17.11,10.69,8.68,0,12.58-2.77,12.58-7.42,0-5.16-5.28-5.54-20-8.68-14.34-3.02-29.06-8.3-29.06-26.55,0-19.37,17.24-28.68,33.97-28.68,24.91,0,34.35,13.96,35.86,29.19h-21.64c-1.26-5.16-4.15-9.18-14.22-9.18s-12.45,3.9-12.45,7.67c0,4.15,4.03,4.66,12.71,6.54,24.66,5.28,36.36,10.82,36.36,28.81Z"/><path class="cls-2" d="M794.79,163.16h-22.77l17.99-41.01-26.04-59.63h22.77l14.59,36.11,14.84-36.11h22.77l-44.16,100.65Z"/><path class="cls-2" d="M847.75,62.52h21.39v7.8c5.03-6.16,11.45-9.44,20-9.44,15.6,0,25.04,10.69,25.04,27.55v43.28h-21.39v-38.5c0-7.55-2.26-11.95-10.95-11.95s-12.71,4.15-12.71,13.71v36.74h-21.39V62.52Z"/><path class="cls-2" d="M924.86,97.11c0-20.51,15.1-36.23,36.36-36.23,17.24,0,32.71,10.44,34.85,28.94h-22.02c-1.64-6.67-7.17-9.18-12.83-9.18-9.44,0-14.72,6.79-14.72,16.48s5.66,16.48,14.59,16.48c5.79,0,11.32-2.77,12.96-9.31h22.02c-2.26,19.12-18.12,29.06-34.97,29.06-21.14,0-36.23-15.73-36.23-36.23Z"/></svg>