<?xml version="1.0" encoding="UTF-8"?><svg id="Calque_1" xmlns="http://www.w3.org/2000/svg" width="200" height="200" viewBox="0 0 200 200"><defs><style>.cls-1{fill:#1c567d;}.cls-2{fill:#599dc8;}</style></defs><path class="cls-2" d="M97.23,38.39c.52-.55-.16-13.59.57-15.67,5-1.27,10.06-3.35,15.23-3.33l.51,161.21c-20.38-4.81-40.95-15.99-61.31-21.83-1.23-.49-2.65-1.42-2.9-2.88-1.08-26.24,1.39-53.71,0-79.8-.08-1.55-.41-6.22-.75-7.35-.39-1.28-4.53-4.95-4.87-6.75.1-5.78.35-11.77.59-17.49.1-2.55-.09-8.83.49-10.65.27-.84,1.26-.99,1.95-1.18,4.31-1.23,9.41-1.46,13.8-2.73,1.66,1.26-.93,15.57.25,15.51l11.39-3.34c.4-2.18.27-14.22,1.08-14.86,4.75-1.06,9.44-2.96,14.29-2.97v14.66c1.77.24,3.45.16,5.28-.01M73.78,94.57c-.69,6.2,0,15.16,0,21.71,0,1.37,3,.27,3.8.25,3.82-.11,7.67.13,11.49.03-.09-2.62.1-5.28.02-7.9-.17-5.44-.17-13.88-1.08-18.94-1.51-8.47-10.22-6.56-12.97.24-.38.94-1.17,3.69-1.27,4.61Z"/><path class="cls-1" d="M113.53,180.61l-.51-161.21,14.03,6.5.31,16.49c.28.88,6.22,3.21,7.58,3.06v-14.93c0-.49-.64-1.4,0-2.44,3.14.36,5.33,2.9,7.96,4.28,1.68.88,12.69,5.54,12.87,6.35-.05.7-.45,1.36-.39,2.07.59,7.36,1.45,22.36.43,29.34-.5,3.41-4.18,5.82-4.57,9.25-1.26,11.24.47,26.45.55,37.98.12,16.82-.1,33.65-.07,50.48-.28,2.11-.9,1.97-2.51,2.72"/><path class="cls-1" d="M73.78,94.57c.1-.93.89-3.67,1.27-4.61,2.75-6.8,11.45-8.7,12.97-.24.91,5.06.91,13.5,1.08,18.94.08,2.62-.11,5.28-.02,7.9-3.82.1-7.66.3-11.49.41-.8.02-3.81.68-3.81-.69,0-6.55-.69-15.51,0-21.71Z"/></svg>